<svg width="72" height="67" xmlns="http://www.w3.org/2000/svg">

 <g>
  <title>background</title>
  <rect fill="none" id="canvas_background" height="69" width="74" y="-1" x="-1"/>
 </g>
 <g>
  <title>Layer 1</title>
  <path fill="#787a7f" stroke="#787a7f" stroke-opacity="0" id="svg_2" d="m65.2,28.100002c0,-0.6 -0.1,-1.1 -0.5,-1.4c-0.3,-0.3 -0.8,-0.5 -1.5,-0.5c-0.1,0 -0.3,0 -0.4,0c-0.6,0 -1.2,0 -1.9,0c-1,0 -1.9,0 -2.9,0l-0.2,0l-0.1,-0.1c-0.6,-1.4 -1.1,-2.8 -1.6,-4.2l0,0c0.1,-0.1 0.3,-0.2 0.4,-0.3c1.1,-1.1 2.3,-2.2 3.4,-3.4c0.4,-0.4 0.7,-0.9 0.7,-1.4c0,-0.5 -0.2,-0.9 -0.6,-1.3c-2.3,-2.4 -4.7,-4.7 -7,-7.1c-0.5,-0.5 -0.9,-0.7 -1.4,-0.7c-0.5,0 -0.9,0.3 -1.4,0.7c-1.2,1.2 -2.4,2.4 -3.7,3.6c-0.1,0.1 -0.2,0.1 -0.2,0.1c0,0 -0.1,0 -0.2,-0.1c-1.2,-0.5 -2.5,-1 -3.7,-1.5c-0.1,-0.1 -0.2,-0.1 -0.2,-0.1c0,0 0,-0.1 0,-0.2l0,0c0,-0.9 0,-1.8 0,-2.6c0,-0.9 0,-1.7 0,-2.6c0,-0.6 -0.1,-1 -0.5,-1.3c-0.3,-0.3 -0.8,-0.5 -1.3,-0.5c-1.7,0 -3.4,0 -5.1,0c0,0 -0.1,0 -0.1,0s-0.1,0 -0.1,0c-1.7,0 -3.4,0 -5.1,0c-0.6,0 -1,0.1 -1.3,0.5c-0.3,0.3 -0.5,0.8 -0.5,1.3c0,0.9 0,1.7 0,2.6c0,0.9 0,1.8 0,2.6l0,0c0,0.1 0,0.2 0,0.2c0,0 -0.1,0.1 -0.2,0.1c-1.2,0.5 -2.5,1 -3.7,1.5c-0.1,0 -0.2,0.1 -0.2,0.1c0,0 -0.1,0 -0.2,-0.1c-1.2,-1.2 -2.4,-2.4 -3.7,-3.6c-0.5,-0.5 -0.9,-0.7 -1.4,-0.7c-0.5,0 -0.9,0.3 -1.4,0.7c-2.3,2.4 -4.7,4.7 -7,7.1c-0.4,0.4 -0.6,0.9 -0.6,1.3c0,0.5 0.2,0.9 0.7,1.4c1.1,1.1 2.2,2.3 3.4,3.4c0.1,0.1 0.3,0.2 0.4,0.3l0,0c-0.5,1.4 -1.1,2.8 -1.6,4.2l-0.1,0.1l-0.2,0c-0.9,0 -1.9,0 -2.9,0c-0.6,0 -1.2,0 -1.9,0c-0.1,0 -0.3,0 -0.4,0c-0.6,0 -1.1,0.1 -1.5,0.5c-0.3,0.3 -0.5,0.8 -0.5,1.4c0,1.6 0,3.1 0,4.7c0,1.7 0,3.5 0,5.2c0,0.7 0.1,1.2 0.5,1.5c0.3,0.3 0.9,0.5 1.5,0.5c0.2,0 0.4,0 0.5,0c0.6,0 1.1,0 1.7,0c0.9,0 1.9,0 2.8,0l0.2,0.1l0.1,0.1l0,0l0,0c0.5,1.3 1.1,2.7 1.7,4.3c-1.2,1.2 -2.6,2.4 -3.9,3.7c-0.4,0.4 -0.6,0.8 -0.6,1.3c0,0.5 0.2,0.9 0.6,1.3c2.4,2.4 4.8,4.8 7.2,7.2c0.4,0.4 0.9,0.7 1.3,0.7c0.5,0 0.9,-0.3 1.4,-0.7c1.2,-1.2 2.5,-2.5 3.7,-3.7c0.1,-0.1 0.2,-0.1 0.2,-0.1c0,0 0.1,0 0.2,0.1c1.2,0.5 2.4,1 3.7,1.5c0.1,0.1 0.2,0.1 0.2,0.1c0,0 0,0.1 0,0.2l0,0c0,0.8 0,1.7 0,2.5c0,0.9 0,1.7 0,2.6c0,0.6 0.1,1.1 0.5,1.4c0.3,0.3 0.8,0.5 1.4,0.5c1.7,0 3.3,0 5,0l0,0c0,0 0,0 0.1,0s0,0 0.1,0l0,0c1.7,0 3.3,0 5,0c0.6,0 1.1,-0.1 1.4,-0.5c0.3,-0.3 0.5,-0.8 0.5,-1.4c0,-0.9 0,-1.7 0,-2.6c0,-0.8 0,-1.7 0,-2.5l0,0c0,-0.1 0,-0.2 0,-0.2c0,0 0.1,-0.1 0.2,-0.1c1.2,-0.5 2.5,-1 3.7,-1.5c0.1,0 0.2,-0.1 0.2,-0.1c0,0 0.1,0 0.2,0.1c1.2,1.2 2.5,2.5 3.7,3.7c0.4,0.4 0.9,0.7 1.4,0.7c0.5,0 0.9,-0.3 1.3,-0.7c2.4,-2.4 4.8,-4.8 7.2,-7.2c0.4,-0.4 0.6,-0.8 0.6,-1.3c0,-0.5 -0.2,-0.9 -0.6,-1.3c-1.3,-1.3 -2.7,-2.5 -3.9,-3.7c0.6,-1.6 1.1,-3 1.7,-4.3l0,0l0,0l0.1,-0.1l0.2,-0.1c0.9,0 1.9,0 2.8,0c0.6,0 1.1,0 1.7,0c0.2,0 0.4,0 0.5,0c0.7,0 1.2,-0.1 1.5,-0.5c0.3,-0.4 0.5,-0.9 0.5,-1.5c0,-1.7 0,-3.5 0,-5.2c0,-1.5 0,-3.1 0,-4.7zm-1.8,10.1c-2.2,0 -4.4,0 -6.6,0l-0.2,0l-0.1,0.2c0,0.1 -0.1,0.2 -0.1,0.3c-0.5,1.8 -1.2,3.6 -2.2,5.2c-0.1,0.2 -0.2,0.4 -0.2,0.6c0,0.3 0.2,0.5 0.4,0.7c1.4,1.4 2.9,2.8 4.3,4.2c-2.4,2.4 -4.7,4.7 -7.2,7.2c0,-0.1 -0.1,-0.1 -0.2,-0.2c-1.4,-1.4 -2.8,-2.8 -4.2,-4.2c-0.1,-0.2 -0.3,-0.3 -0.5,-0.3c-0.2,0 -0.3,0.1 -0.5,0.1c-1.7,1 -3.4,1.7 -5.3,2.2c-0.2,0 -0.4,0.1 -0.5,0.3c-0.1,0.2 -0.1,0.3 -0.1,0.5l0,0c0,0 0,0 0,0l0,0l0,0l0,0c0,1 0,2 0,3c0,1 0,1.9 0,2.9c0,0.1 0,0.2 0,0.3c-1.7,0 -3.4,0 -5,0l0,0c0,0 0,0 -0.1,0s0,0 -0.1,0l0,0c-1.7,0 -3.4,0 -5,0c0,-0.1 0,-0.2 0,-0.3c0,-1 0,-1.9 0,-2.9c0,-1 0,-2 0,-3l0,0l0,0l0,0c0,0 0,0 0,0l0,0c0,-0.2 0,-0.3 -0.1,-0.5c-0.1,-0.2 -0.3,-0.3 -0.5,-0.3c-1.9,-0.5 -3.6,-1.2 -5.3,-2.2c-0.1,-0.1 -0.3,-0.1 -0.5,-0.1c-0.2,0 -0.4,0.1 -0.6,0.3c-1.4,1.4 -2.8,2.8 -4.2,4.2c-0.1,0.1 -0.1,0.1 -0.2,0.2c-2.4,-2.4 -4.8,-4.8 -7.2,-7.2c1.4,-1.4 2.8,-2.8 4.3,-4.2c0.2,-0.2 0.4,-0.4 0.4,-0.7c0,-0.2 -0.1,-0.4 -0.2,-0.6c-1,-1.6 -1.7,-3.4 -2.2,-5.2c0,-0.1 -0.1,-0.2 -0.1,-0.3l-0.1,-0.2l-0.2,0c-2.2,0 -4.4,0 -6.6,0c0,-3.4 0,-6.7 0,-10c2.2,0 4.4,0 6.6,0l0.2,0l0.1,-0.2c0.3,-0.8 0.4,-1.6 0.7,-2.2c0.5,-1.2 1.1,-2.4 1.7,-3.5c0.1,-0.1 0.1,-0.3 0.1,-0.4c0,-0.2 -0.1,-0.4 -0.3,-0.5c-1.4,-1.4 -2.8,-2.8 -4.2,-4.2c-0.1,-0.1 -0.1,-0.1 -0.2,-0.2c2.4,-2.4 4.7,-4.7 7.1,-7.1c0.7,0.7 1.3,1.3 2,2c0.8,0.8 1.6,1.6 2.4,2.4c0.1,0.1 0.3,0.3 0.5,0.3c0.2,0 0.3,-0.1 0.4,-0.1c1.7,-1 3.5,-1.8 5.4,-2.2c0.2,0 0.4,-0.2 0.5,-0.3c0.1,-0.2 0.1,-0.3 0.1,-0.5l0,0c0,-0.4 0,-2.5 0,-3.2c0,-0.9 0,-1.8 0,-2.7l0,0l0,0l0,0c0,-0.2 0,-0.3 0,-0.3c0,0 0.1,0 0.3,0l0,0c1.6,0 3.2,0 4.8,0l0,0c0,0 0,0 0.1,0s0,0 0.1,0l0,0c1.6,0 3.2,0 4.8,0l0,0c0.2,0 0.3,0 0.3,0c0,0 0,0.1 0,0.3l0,0l0,0l0,0c0,0.9 0,1.8 0,2.7c0,0.7 0,1.4 0,2.1c0,0.4 0,0.7 0,1.1l0,0c0,0.1 0,0.3 0.1,0.5c0.1,0.2 0.3,0.3 0.5,0.3c1.9,0.5 3.7,1.3 5.4,2.2c0.1,0.1 0.3,0.1 0.4,0.1c0.2,0 0.4,-0.1 0.5,-0.3c0.8,-0.8 1.6,-1.6 2.4,-2.4c0.7,-0.7 1.4,-1.4 2,-2c2.4,2.4 4.7,4.7 7.1,7.1c-0.1,0 -0.1,0.1 -0.2,0.2c-1.4,1.4 -2.8,2.8 -4.2,4.2c-0.1,0.1 -0.3,0.3 -0.3,0.5c0,0.1 0.1,0.3 0.1,0.4c0.6,1.2 1.1,2.3 1.7,3.5c0.3,0.7 0.5,1.4 0.7,2.2l0.1,0.2l0.2,0c2.2,0 4.4,0 6.6,0c0.1,3.3 0.1,6.6 0.1,10z"/>
  <path fill="#787a7f" id="svg_3" d="m35.3,18.000002l0,0l0,0c-0.1,0 -0.1,0 0,0c-0.1,0 -0.1,0 -0.1,0l0,0l0,0c-8.3,0 -15.1,6.8 -15.2,15.1l0,0.1c0,8.3 6.8,15.1 15.1,15.1l0.1,0c0,0 0,0 0,0c0,0 0,0 0,0l0.1,0c8.3,0 15.1,-6.8 15.1,-15.1l0,-0.1c0,-8.3 -6.8,-15.1 -15.1,-15.1zm0,28.4l0,0l0,0c-0.1,0 -0.1,0 0,0c-0.1,0 -0.1,0 -0.1,0l0,0l0,0c-7.2,0 -13.2,-6 -13.2,-13.2l0,-0.1c0,-7.3 6,-13.2 13.2,-13.2c0,0 0,0 0,0l0,0c0,0 0,0 0.1,0c0,0 0,0 0.1,0l0,0c0,0 0,0 0,0c7.2,0 13.2,5.9 13.2,13.2l0,0.1c-0.1,7.2 -6.1,13.2 -13.3,13.2z"/>
 </g>
</svg>